<mxfile host="app.diagrams.net" agent="Mozilla/5.0 (Windows NT 10.0; Win64; x64) AppleWebKit/537.36 (KHTML, like Gecko) Chrome/135.0.0.0 Safari/537.36" version="26.2.14">
  <diagram name="Страница — 1" id="B3ZHkuoPH5xDZUzoOLNH">
    <mxGraphModel dx="4392" dy="1858" grid="1" gridSize="10" guides="1" tooltips="1" connect="1" arrows="1" fold="1" page="1" pageScale="1" pageWidth="827" pageHeight="1169" math="0" shadow="0">
      <root>
        <mxCell id="0" />
        <mxCell id="1" parent="0" />
        <mxCell id="qQqaNePB98iEBp-6nDgx-1" value="Регистрация и авторизация" style="shape=umlFrame;whiteSpace=wrap;html=1;pointerEvents=0;width=193;height=20;" vertex="1" parent="1">
          <mxGeometry x="157" y="120" width="483" height="760" as="geometry" />
        </mxCell>
        <mxCell id="qQqaNePB98iEBp-6nDgx-2" value="" style="ellipse;html=1;shape=startState;fillColor=#000000;strokeColor=#000000;" vertex="1" parent="1">
          <mxGeometry x="385" y="60" width="30" height="30" as="geometry" />
        </mxCell>
        <mxCell id="qQqaNePB98iEBp-6nDgx-4" value="Открыть приложение" style="rounded=1;whiteSpace=wrap;html=1;" vertex="1" parent="1">
          <mxGeometry x="320" y="160" width="160" height="40" as="geometry" />
        </mxCell>
        <mxCell id="qQqaNePB98iEBp-6nDgx-5" value="" style="endArrow=classic;html=1;rounded=0;exitX=0.5;exitY=0.667;exitDx=0;exitDy=0;exitPerimeter=0;" edge="1" parent="1" source="qQqaNePB98iEBp-6nDgx-2" target="qQqaNePB98iEBp-6nDgx-4">
          <mxGeometry width="50" height="50" relative="1" as="geometry">
            <mxPoint x="390" y="220" as="sourcePoint" />
            <mxPoint x="440" y="170" as="targetPoint" />
          </mxGeometry>
        </mxCell>
        <mxCell id="qQqaNePB98iEBp-6nDgx-6" value="Есть аккаунт?" style="shape=hexagon;perimeter=hexagonPerimeter2;whiteSpace=wrap;html=1;fixedSize=1;" vertex="1" parent="1">
          <mxGeometry x="340" y="220" width="120" height="40" as="geometry" />
        </mxCell>
        <mxCell id="qQqaNePB98iEBp-6nDgx-7" value="" style="endArrow=classic;html=1;rounded=0;exitX=0.5;exitY=1;exitDx=0;exitDy=0;entryX=0.5;entryY=0;entryDx=0;entryDy=0;" edge="1" parent="1" source="qQqaNePB98iEBp-6nDgx-4" target="qQqaNePB98iEBp-6nDgx-6">
          <mxGeometry width="50" height="50" relative="1" as="geometry">
            <mxPoint x="370" y="300" as="sourcePoint" />
            <mxPoint x="420" y="250" as="targetPoint" />
          </mxGeometry>
        </mxCell>
        <mxCell id="qQqaNePB98iEBp-6nDgx-8" value="Регистрация" style="rounded=1;whiteSpace=wrap;html=1;" vertex="1" parent="1">
          <mxGeometry x="480" y="280" width="80" height="30" as="geometry" />
        </mxCell>
        <mxCell id="qQqaNePB98iEBp-6nDgx-10" value="Авторизация" style="rounded=1;whiteSpace=wrap;html=1;" vertex="1" parent="1">
          <mxGeometry x="240" y="280" width="80" height="30" as="geometry" />
        </mxCell>
        <mxCell id="qQqaNePB98iEBp-6nDgx-11" value="" style="endArrow=classic;html=1;rounded=0;exitX=0;exitY=0.5;exitDx=0;exitDy=0;entryX=0.5;entryY=0;entryDx=0;entryDy=0;" edge="1" parent="1" source="qQqaNePB98iEBp-6nDgx-6" target="qQqaNePB98iEBp-6nDgx-10">
          <mxGeometry width="50" height="50" relative="1" as="geometry">
            <mxPoint x="350" y="220" as="sourcePoint" />
            <mxPoint x="400" y="170" as="targetPoint" />
            <Array as="points">
              <mxPoint x="280" y="240" />
            </Array>
          </mxGeometry>
        </mxCell>
        <mxCell id="qQqaNePB98iEBp-6nDgx-13" value="Да" style="edgeLabel;html=1;align=center;verticalAlign=bottom;resizable=0;points=[];labelPosition=center;verticalLabelPosition=top;" vertex="1" connectable="0" parent="qQqaNePB98iEBp-6nDgx-11">
          <mxGeometry x="-0.3702" relative="1" as="geometry">
            <mxPoint as="offset" />
          </mxGeometry>
        </mxCell>
        <mxCell id="qQqaNePB98iEBp-6nDgx-12" value="" style="endArrow=classic;html=1;rounded=0;exitX=1;exitY=0.5;exitDx=0;exitDy=0;entryX=0.5;entryY=0;entryDx=0;entryDy=0;" edge="1" parent="1" source="qQqaNePB98iEBp-6nDgx-6" target="qQqaNePB98iEBp-6nDgx-8">
          <mxGeometry width="50" height="50" relative="1" as="geometry">
            <mxPoint x="350" y="220" as="sourcePoint" />
            <mxPoint x="400" y="170" as="targetPoint" />
            <Array as="points">
              <mxPoint x="520" y="240" />
            </Array>
          </mxGeometry>
        </mxCell>
        <mxCell id="qQqaNePB98iEBp-6nDgx-14" value="Нет" style="edgeLabel;html=1;align=center;verticalAlign=bottom;resizable=0;points=[];labelPosition=center;verticalLabelPosition=top;" vertex="1" connectable="0" parent="qQqaNePB98iEBp-6nDgx-12">
          <mxGeometry x="-0.2369" y="1" relative="1" as="geometry">
            <mxPoint y="1" as="offset" />
          </mxGeometry>
        </mxCell>
        <mxCell id="qQqaNePB98iEBp-6nDgx-15" value="Ввести email" style="rounded=1;whiteSpace=wrap;html=1;" vertex="1" parent="1">
          <mxGeometry x="480" y="330" width="80" height="30" as="geometry" />
        </mxCell>
        <mxCell id="qQqaNePB98iEBp-6nDgx-16" value="" style="endArrow=classic;html=1;rounded=0;exitX=0.5;exitY=1;exitDx=0;exitDy=0;entryX=0.5;entryY=0;entryDx=0;entryDy=0;" edge="1" parent="1" source="qQqaNePB98iEBp-6nDgx-8" target="qQqaNePB98iEBp-6nDgx-15">
          <mxGeometry width="50" height="50" relative="1" as="geometry">
            <mxPoint x="350" y="360" as="sourcePoint" />
            <mxPoint x="400" y="310" as="targetPoint" />
          </mxGeometry>
        </mxCell>
        <mxCell id="qQqaNePB98iEBp-6nDgx-17" value="Отправить код подтверждения" style="rounded=1;whiteSpace=wrap;html=1;" vertex="1" parent="1">
          <mxGeometry x="430" y="380" width="180" height="30" as="geometry" />
        </mxCell>
        <mxCell id="qQqaNePB98iEBp-6nDgx-18" value="" style="endArrow=classic;html=1;rounded=0;exitX=0.5;exitY=1;exitDx=0;exitDy=0;entryX=0.5;entryY=0;entryDx=0;entryDy=0;" edge="1" parent="1" source="qQqaNePB98iEBp-6nDgx-15" target="qQqaNePB98iEBp-6nDgx-17">
          <mxGeometry width="50" height="50" relative="1" as="geometry">
            <mxPoint x="350" y="360" as="sourcePoint" />
            <mxPoint x="400" y="310" as="targetPoint" />
          </mxGeometry>
        </mxCell>
        <mxCell id="qQqaNePB98iEBp-6nDgx-19" value="Подтвердить email" style="rounded=1;whiteSpace=wrap;html=1;" vertex="1" parent="1">
          <mxGeometry x="462.5" y="430" width="115" height="30" as="geometry" />
        </mxCell>
        <mxCell id="qQqaNePB98iEBp-6nDgx-20" value="" style="endArrow=classic;html=1;rounded=0;exitX=0.5;exitY=1;exitDx=0;exitDy=0;" edge="1" parent="1" source="qQqaNePB98iEBp-6nDgx-17" target="qQqaNePB98iEBp-6nDgx-19">
          <mxGeometry width="50" height="50" relative="1" as="geometry">
            <mxPoint x="350" y="500" as="sourcePoint" />
            <mxPoint x="400" y="450" as="targetPoint" />
          </mxGeometry>
        </mxCell>
        <mxCell id="qQqaNePB98iEBp-6nDgx-21" value="Авторизация" style="rounded=1;whiteSpace=wrap;html=1;" vertex="1" parent="1">
          <mxGeometry x="480" y="480" width="80" height="30" as="geometry" />
        </mxCell>
        <mxCell id="qQqaNePB98iEBp-6nDgx-22" value="" style="endArrow=classic;html=1;rounded=0;exitX=0.5;exitY=1;exitDx=0;exitDy=0;entryX=0.5;entryY=0;entryDx=0;entryDy=0;" edge="1" parent="1" source="qQqaNePB98iEBp-6nDgx-19" target="qQqaNePB98iEBp-6nDgx-21">
          <mxGeometry width="50" height="50" relative="1" as="geometry">
            <mxPoint x="350" y="500" as="sourcePoint" />
            <mxPoint x="400" y="450" as="targetPoint" />
          </mxGeometry>
        </mxCell>
        <mxCell id="qQqaNePB98iEBp-6nDgx-23" value="" style="rhombus;whiteSpace=wrap;html=1;" vertex="1" parent="1">
          <mxGeometry x="380" y="520" width="40" height="40" as="geometry" />
        </mxCell>
        <mxCell id="qQqaNePB98iEBp-6nDgx-24" value="" style="endArrow=classic;html=1;rounded=0;exitX=0.5;exitY=1;exitDx=0;exitDy=0;entryX=1;entryY=0.5;entryDx=0;entryDy=0;" edge="1" parent="1" source="qQqaNePB98iEBp-6nDgx-21" target="qQqaNePB98iEBp-6nDgx-23">
          <mxGeometry width="50" height="50" relative="1" as="geometry">
            <mxPoint x="340" y="560" as="sourcePoint" />
            <mxPoint x="390" y="510" as="targetPoint" />
            <Array as="points">
              <mxPoint x="520" y="540" />
            </Array>
          </mxGeometry>
        </mxCell>
        <mxCell id="qQqaNePB98iEBp-6nDgx-25" value="" style="endArrow=classic;html=1;rounded=0;exitX=0.5;exitY=1;exitDx=0;exitDy=0;entryX=0;entryY=0.5;entryDx=0;entryDy=0;" edge="1" parent="1" source="qQqaNePB98iEBp-6nDgx-10" target="qQqaNePB98iEBp-6nDgx-23">
          <mxGeometry width="50" height="50" relative="1" as="geometry">
            <mxPoint x="340" y="560" as="sourcePoint" />
            <mxPoint x="390" y="510" as="targetPoint" />
            <Array as="points">
              <mxPoint x="280" y="540" />
            </Array>
          </mxGeometry>
        </mxCell>
        <mxCell id="qQqaNePB98iEBp-6nDgx-26" value="Забыли пароль?" style="shape=hexagon;perimeter=hexagonPerimeter2;whiteSpace=wrap;html=1;fixedSize=1;" vertex="1" parent="1">
          <mxGeometry x="342.5" y="580" width="120" height="40" as="geometry" />
        </mxCell>
        <mxCell id="qQqaNePB98iEBp-6nDgx-27" value="" style="endArrow=classic;html=1;rounded=0;exitX=0.5;exitY=1;exitDx=0;exitDy=0;" edge="1" parent="1" source="qQqaNePB98iEBp-6nDgx-23">
          <mxGeometry width="50" height="50" relative="1" as="geometry">
            <mxPoint x="340" y="660" as="sourcePoint" />
            <mxPoint x="400" y="580" as="targetPoint" />
          </mxGeometry>
        </mxCell>
        <mxCell id="qQqaNePB98iEBp-6nDgx-28" value="Запрос сброса пароля" style="rounded=1;whiteSpace=wrap;html=1;" vertex="1" parent="1">
          <mxGeometry x="321.25" y="660" width="157.5" height="30" as="geometry" />
        </mxCell>
        <mxCell id="qQqaNePB98iEBp-6nDgx-29" value="" style="endArrow=classic;html=1;rounded=0;" edge="1" parent="1">
          <mxGeometry width="50" height="50" relative="1" as="geometry">
            <mxPoint x="400" y="620" as="sourcePoint" />
            <mxPoint x="400" y="660" as="targetPoint" />
          </mxGeometry>
        </mxCell>
        <mxCell id="qQqaNePB98iEBp-6nDgx-30" value="Да" style="edgeLabel;html=1;align=center;verticalAlign=middle;resizable=0;points=[];" vertex="1" connectable="0" parent="qQqaNePB98iEBp-6nDgx-29">
          <mxGeometry x="-0.0796" relative="1" as="geometry">
            <mxPoint as="offset" />
          </mxGeometry>
        </mxCell>
        <mxCell id="qQqaNePB98iEBp-6nDgx-31" value="Отправить ссылку на email" style="rounded=1;whiteSpace=wrap;html=1;" vertex="1" parent="1">
          <mxGeometry x="310" y="710" width="180" height="30" as="geometry" />
        </mxCell>
        <mxCell id="qQqaNePB98iEBp-6nDgx-32" value="" style="endArrow=classic;html=1;rounded=0;exitX=0.5;exitY=1;exitDx=0;exitDy=0;entryX=0.5;entryY=0;entryDx=0;entryDy=0;" edge="1" parent="1" source="qQqaNePB98iEBp-6nDgx-28" target="qQqaNePB98iEBp-6nDgx-31">
          <mxGeometry width="50" height="50" relative="1" as="geometry">
            <mxPoint x="390" y="630" as="sourcePoint" />
            <mxPoint x="440" y="580" as="targetPoint" />
          </mxGeometry>
        </mxCell>
        <mxCell id="qQqaNePB98iEBp-6nDgx-33" value="Сбросить пароль" style="rounded=1;whiteSpace=wrap;html=1;" vertex="1" parent="1">
          <mxGeometry x="341" y="760" width="115" height="30" as="geometry" />
        </mxCell>
        <mxCell id="qQqaNePB98iEBp-6nDgx-34" value="" style="endArrow=classic;html=1;rounded=0;exitX=0.5;exitY=1;exitDx=0;exitDy=0;" edge="1" parent="1" target="qQqaNePB98iEBp-6nDgx-33">
          <mxGeometry width="50" height="50" relative="1" as="geometry">
            <mxPoint x="398.5" y="740" as="sourcePoint" />
            <mxPoint x="278.5" y="780" as="targetPoint" />
          </mxGeometry>
        </mxCell>
        <mxCell id="qQqaNePB98iEBp-6nDgx-36" value="" style="rhombus;whiteSpace=wrap;html=1;" vertex="1" parent="1">
          <mxGeometry x="380" y="810" width="40" height="40" as="geometry" />
        </mxCell>
        <mxCell id="qQqaNePB98iEBp-6nDgx-37" value="" style="endArrow=classic;html=1;rounded=0;exitX=0.512;exitY=1;exitDx=0;exitDy=0;entryX=0.5;entryY=0;entryDx=0;entryDy=0;exitPerimeter=0;" edge="1" parent="1" source="qQqaNePB98iEBp-6nDgx-33" target="qQqaNePB98iEBp-6nDgx-36">
          <mxGeometry width="50" height="50" relative="1" as="geometry">
            <mxPoint x="360" y="870" as="sourcePoint" />
            <mxPoint x="410" y="820" as="targetPoint" />
          </mxGeometry>
        </mxCell>
        <mxCell id="qQqaNePB98iEBp-6nDgx-38" value="" style="endArrow=classic;html=1;rounded=0;exitX=1;exitY=0.5;exitDx=0;exitDy=0;entryX=1;entryY=0.5;entryDx=0;entryDy=0;" edge="1" parent="1" source="qQqaNePB98iEBp-6nDgx-26" target="qQqaNePB98iEBp-6nDgx-36">
          <mxGeometry width="50" height="50" relative="1" as="geometry">
            <mxPoint x="300" y="770" as="sourcePoint" />
            <mxPoint x="350" y="720" as="targetPoint" />
            <Array as="points">
              <mxPoint x="520" y="600" />
              <mxPoint x="520" y="830" />
            </Array>
          </mxGeometry>
        </mxCell>
        <mxCell id="qQqaNePB98iEBp-6nDgx-39" value="Нет" style="edgeLabel;html=1;align=center;verticalAlign=bottom;resizable=0;points=[];labelPosition=center;verticalLabelPosition=top;" vertex="1" connectable="0" parent="qQqaNePB98iEBp-6nDgx-38">
          <mxGeometry x="-0.8646" y="2" relative="1" as="geometry">
            <mxPoint as="offset" />
          </mxGeometry>
        </mxCell>
        <mxCell id="qQqaNePB98iEBp-6nDgx-43" value="" style="endArrow=classic;html=1;rounded=0;exitX=0.5;exitY=1;exitDx=0;exitDy=0;" edge="1" parent="1" source="qQqaNePB98iEBp-6nDgx-36" target="qQqaNePB98iEBp-6nDgx-60">
          <mxGeometry width="50" height="50" relative="1" as="geometry">
            <mxPoint x="320" y="920" as="sourcePoint" />
            <mxPoint x="370" y="870" as="targetPoint" />
          </mxGeometry>
        </mxCell>
        <mxCell id="qQqaNePB98iEBp-6nDgx-60" value="Тип моделирования?" style="shape=hexagon;perimeter=hexagonPerimeter2;whiteSpace=wrap;html=1;fixedSize=1;" vertex="1" parent="1">
          <mxGeometry x="320.62" y="910" width="158.75" height="40" as="geometry" />
        </mxCell>
        <mxCell id="qQqaNePB98iEBp-6nDgx-61" value="" style="endArrow=classic;html=1;rounded=0;entryX=0.54;entryY=0.25;entryDx=0;entryDy=0;entryPerimeter=0;" edge="1" parent="1">
          <mxGeometry width="50" height="50" relative="1" as="geometry">
            <mxPoint x="320" y="930" as="sourcePoint" />
            <mxPoint x="-20.02500000000009" y="1010" as="targetPoint" />
            <Array as="points">
              <mxPoint x="-20" y="930" />
            </Array>
          </mxGeometry>
        </mxCell>
        <mxCell id="qQqaNePB98iEBp-6nDgx-99" value="Математическое моделирование" style="shape=umlFrame;whiteSpace=wrap;html=1;pointerEvents=0;width=200;height=20;" vertex="1" parent="1">
          <mxGeometry x="-270" y="950" width="483" height="990" as="geometry" />
        </mxCell>
        <mxCell id="qQqaNePB98iEBp-6nDgx-100" value="Создать новую модель?" style="shape=hexagon;perimeter=hexagonPerimeter2;whiteSpace=wrap;html=1;fixedSize=1;" vertex="1" parent="1">
          <mxGeometry x="-105.75" y="1000" width="158.75" height="40" as="geometry" />
        </mxCell>
        <mxCell id="qQqaNePB98iEBp-6nDgx-101" value="" style="endArrow=classic;html=1;rounded=0;exitX=0;exitY=0.5;exitDx=0;exitDy=0;entryX=0.5;entryY=0;entryDx=0;entryDy=0;" edge="1" parent="1" source="qQqaNePB98iEBp-6nDgx-100" target="qQqaNePB98iEBp-6nDgx-103">
          <mxGeometry width="50" height="50" relative="1" as="geometry">
            <mxPoint x="-187" y="1060" as="sourcePoint" />
            <mxPoint x="-137" y="1020" as="targetPoint" />
            <Array as="points">
              <mxPoint x="-147" y="1020" />
            </Array>
          </mxGeometry>
        </mxCell>
        <mxCell id="qQqaNePB98iEBp-6nDgx-102" value="Да" style="edgeLabel;html=1;align=center;verticalAlign=bottom;resizable=0;points=[];labelPosition=center;verticalLabelPosition=top;" vertex="1" connectable="0" parent="qQqaNePB98iEBp-6nDgx-101">
          <mxGeometry x="-0.6395" y="-1" relative="1" as="geometry">
            <mxPoint as="offset" />
          </mxGeometry>
        </mxCell>
        <mxCell id="qQqaNePB98iEBp-6nDgx-103" value="Создать новую модель" style="rounded=1;whiteSpace=wrap;html=1;" vertex="1" parent="1">
          <mxGeometry x="-225.75" y="1070" width="157.5" height="30" as="geometry" />
        </mxCell>
        <mxCell id="qQqaNePB98iEBp-6nDgx-104" value="Выбрать существующую модель" style="rounded=1;whiteSpace=wrap;html=1;" vertex="1" parent="1">
          <mxGeometry x="13" y="1070" width="188.75" height="30" as="geometry" />
        </mxCell>
        <mxCell id="qQqaNePB98iEBp-6nDgx-105" value="" style="endArrow=classic;html=1;rounded=0;exitX=1;exitY=0.5;exitDx=0;exitDy=0;entryX=0.53;entryY=0.028;entryDx=0;entryDy=0;entryPerimeter=0;" edge="1" parent="1" source="qQqaNePB98iEBp-6nDgx-100" target="qQqaNePB98iEBp-6nDgx-104">
          <mxGeometry width="50" height="50" relative="1" as="geometry">
            <mxPoint x="133" y="1020" as="sourcePoint" />
            <mxPoint x="92" y="1070" as="targetPoint" />
            <Array as="points">
              <mxPoint x="113" y="1020" />
            </Array>
          </mxGeometry>
        </mxCell>
        <mxCell id="qQqaNePB98iEBp-6nDgx-106" value="Нет" style="edgeLabel;html=1;align=center;verticalAlign=middle;resizable=0;points=[];" vertex="1" connectable="0" parent="qQqaNePB98iEBp-6nDgx-105">
          <mxGeometry x="-0.627" y="7" relative="1" as="geometry">
            <mxPoint x="4" y="-3" as="offset" />
          </mxGeometry>
        </mxCell>
        <mxCell id="qQqaNePB98iEBp-6nDgx-107" value="" style="endArrow=classic;html=1;rounded=0;exitX=0.522;exitY=1.085;exitDx=0;exitDy=0;exitPerimeter=0;entryX=1;entryY=0.5;entryDx=0;entryDy=0;" edge="1" parent="1" source="qQqaNePB98iEBp-6nDgx-104" target="qQqaNePB98iEBp-6nDgx-113">
          <mxGeometry width="50" height="50" relative="1" as="geometry">
            <mxPoint x="-147" y="1120" as="sourcePoint" />
            <mxPoint x="-7" y="1160" as="targetPoint" />
            <Array as="points">
              <mxPoint x="112" y="1200" />
            </Array>
          </mxGeometry>
        </mxCell>
        <mxCell id="qQqaNePB98iEBp-6nDgx-108" value="Определить параметры" style="rounded=1;whiteSpace=wrap;html=1;" vertex="1" parent="1">
          <mxGeometry x="-215.25" y="1119" width="136.5" height="30" as="geometry" />
        </mxCell>
        <mxCell id="qQqaNePB98iEBp-6nDgx-109" value="" style="endArrow=classic;html=1;rounded=0;exitX=0.5;exitY=1;exitDx=0;exitDy=0;" edge="1" parent="1">
          <mxGeometry width="50" height="50" relative="1" as="geometry">
            <mxPoint x="-145.5" y="1100" as="sourcePoint" />
            <mxPoint x="-145.5" y="1120" as="targetPoint" />
          </mxGeometry>
        </mxCell>
        <mxCell id="qQqaNePB98iEBp-6nDgx-110" value="Есть документация?" style="shape=hexagon;perimeter=hexagonPerimeter2;whiteSpace=wrap;html=1;fixedSize=1;" vertex="1" parent="1">
          <mxGeometry x="-100" y="1390" width="158.75" height="40" as="geometry" />
        </mxCell>
        <mxCell id="qQqaNePB98iEBp-6nDgx-111" value="" style="endArrow=classic;html=1;rounded=0;exitX=0.513;exitY=1.014;exitDx=0;exitDy=0;exitPerimeter=0;entryX=0;entryY=0.5;entryDx=0;entryDy=0;" edge="1" parent="1" source="qQqaNePB98iEBp-6nDgx-108" target="qQqaNePB98iEBp-6nDgx-113">
          <mxGeometry width="50" height="50" relative="1" as="geometry">
            <mxPoint x="-157" y="1230" as="sourcePoint" />
            <mxPoint x="-107" y="1180" as="targetPoint" />
            <Array as="points">
              <mxPoint x="-145" y="1200" />
            </Array>
          </mxGeometry>
        </mxCell>
        <mxCell id="qQqaNePB98iEBp-6nDgx-112" value="Математическое" style="edgeLabel;html=1;align=center;verticalAlign=bottom;resizable=0;points=[];labelPosition=center;verticalLabelPosition=top;" vertex="1" connectable="0" parent="1">
          <mxGeometry x="171.76470588235316" y="927.9999999999998" as="geometry" />
        </mxCell>
        <mxCell id="qQqaNePB98iEBp-6nDgx-113" value="" style="rhombus;whiteSpace=wrap;html=1;" vertex="1" parent="1">
          <mxGeometry x="-40" y="1180" width="40" height="40" as="geometry" />
        </mxCell>
        <mxCell id="qQqaNePB98iEBp-6nDgx-114" value="Задать параметры" style="rounded=1;whiteSpace=wrap;html=1;" vertex="1" parent="1">
          <mxGeometry x="-98.75" y="1240" width="157.5" height="30" as="geometry" />
        </mxCell>
        <mxCell id="qQqaNePB98iEBp-6nDgx-115" value="" style="endArrow=classic;html=1;rounded=0;exitX=0.5;exitY=1;exitDx=0;exitDy=0;entryX=0.5;entryY=0;entryDx=0;entryDy=0;" edge="1" parent="1" source="qQqaNePB98iEBp-6nDgx-113" target="qQqaNePB98iEBp-6nDgx-114">
          <mxGeometry width="50" height="50" relative="1" as="geometry">
            <mxPoint x="80" y="1340" as="sourcePoint" />
            <mxPoint x="130" y="1290" as="targetPoint" />
          </mxGeometry>
        </mxCell>
        <mxCell id="qQqaNePB98iEBp-6nDgx-116" value="Запустить вычисления" style="rounded=1;whiteSpace=wrap;html=1;" vertex="1" parent="1">
          <mxGeometry x="-98.75" y="1290" width="157.5" height="30" as="geometry" />
        </mxCell>
        <mxCell id="qQqaNePB98iEBp-6nDgx-117" value="" style="endArrow=classic;html=1;rounded=0;exitX=0.5;exitY=1;exitDx=0;exitDy=0;entryX=0.5;entryY=0;entryDx=0;entryDy=0;" edge="1" parent="1">
          <mxGeometry width="50" height="50" relative="1" as="geometry">
            <mxPoint x="-20.21" y="1270" as="sourcePoint" />
            <mxPoint x="-20.21" y="1290" as="targetPoint" />
          </mxGeometry>
        </mxCell>
        <mxCell id="qQqaNePB98iEBp-6nDgx-118" value="" style="edgeStyle=orthogonalEdgeStyle;rounded=0;orthogonalLoop=1;jettySize=auto;html=1;" edge="1" parent="1">
          <mxGeometry relative="1" as="geometry">
            <mxPoint x="-20.093757225433492" y="1370" as="sourcePoint" />
            <mxPoint x="-20" y="1390" as="targetPoint" />
          </mxGeometry>
        </mxCell>
        <mxCell id="qQqaNePB98iEBp-6nDgx-119" value="Получить результат" style="rounded=1;whiteSpace=wrap;html=1;" vertex="1" parent="1">
          <mxGeometry x="-98.75" y="1340" width="157.5" height="30" as="geometry" />
        </mxCell>
        <mxCell id="qQqaNePB98iEBp-6nDgx-120" value="" style="endArrow=classic;html=1;rounded=0;exitX=0.5;exitY=1;exitDx=0;exitDy=0;entryX=0.5;entryY=0;entryDx=0;entryDy=0;" edge="1" parent="1">
          <mxGeometry width="50" height="50" relative="1" as="geometry">
            <mxPoint x="-20.21" y="1320" as="sourcePoint" />
            <mxPoint x="-20.21" y="1340" as="targetPoint" />
          </mxGeometry>
        </mxCell>
        <mxCell id="qQqaNePB98iEBp-6nDgx-121" value="" style="endArrow=classic;html=1;rounded=0;exitX=0.5;exitY=1;exitDx=0;exitDy=0;" edge="1" parent="1" source="qQqaNePB98iEBp-6nDgx-110" target="qQqaNePB98iEBp-6nDgx-123">
          <mxGeometry width="50" height="50" relative="1" as="geometry">
            <mxPoint x="-130" y="1530" as="sourcePoint" />
            <mxPoint x="-80" y="1480" as="targetPoint" />
          </mxGeometry>
        </mxCell>
        <mxCell id="qQqaNePB98iEBp-6nDgx-122" value="Да" style="edgeLabel;html=1;align=center;verticalAlign=middle;resizable=0;points=[];" vertex="1" connectable="0" parent="qQqaNePB98iEBp-6nDgx-121">
          <mxGeometry x="-0.0626" y="-1" relative="1" as="geometry">
            <mxPoint as="offset" />
          </mxGeometry>
        </mxCell>
        <mxCell id="qQqaNePB98iEBp-6nDgx-123" value="Загрузить документацию" style="rounded=1;whiteSpace=wrap;html=1;" vertex="1" parent="1">
          <mxGeometry x="-99.37" y="1470" width="157.5" height="30" as="geometry" />
        </mxCell>
        <mxCell id="qQqaNePB98iEBp-6nDgx-124" value="" style="endArrow=classic;html=1;rounded=0;exitX=0.5;exitY=1;exitDx=0;exitDy=0;entryX=0.5;entryY=0;entryDx=0;entryDy=0;" edge="1" parent="1" source="qQqaNePB98iEBp-6nDgx-123" target="qQqaNePB98iEBp-6nDgx-126">
          <mxGeometry width="50" height="50" relative="1" as="geometry">
            <mxPoint x="-130" y="1490" as="sourcePoint" />
            <mxPoint x="-20.79896000000008" y="1523.96" as="targetPoint" />
          </mxGeometry>
        </mxCell>
        <mxCell id="qQqaNePB98iEBp-6nDgx-125" value="" style="edgeStyle=orthogonalEdgeStyle;rounded=0;orthogonalLoop=1;jettySize=auto;html=1;" edge="1" parent="1" source="qQqaNePB98iEBp-6nDgx-126" target="qQqaNePB98iEBp-6nDgx-128">
          <mxGeometry relative="1" as="geometry" />
        </mxCell>
        <mxCell id="qQqaNePB98iEBp-6nDgx-126" value="AI - анализ" style="rounded=1;whiteSpace=wrap;html=1;" vertex="1" parent="1">
          <mxGeometry x="-100" y="1530" width="160" height="30" as="geometry" />
        </mxCell>
        <mxCell id="qQqaNePB98iEBp-6nDgx-127" value="" style="edgeStyle=orthogonalEdgeStyle;rounded=0;orthogonalLoop=1;jettySize=auto;html=1;" edge="1" parent="1" source="qQqaNePB98iEBp-6nDgx-128" target="qQqaNePB98iEBp-6nDgx-130">
          <mxGeometry relative="1" as="geometry" />
        </mxCell>
        <mxCell id="qQqaNePB98iEBp-6nDgx-128" value="Извлечь реальные показатели" style="rounded=1;whiteSpace=wrap;html=1;" vertex="1" parent="1">
          <mxGeometry x="-100" y="1590" width="160" height="30" as="geometry" />
        </mxCell>
        <mxCell id="qQqaNePB98iEBp-6nDgx-129" value="" style="edgeStyle=orthogonalEdgeStyle;rounded=0;orthogonalLoop=1;jettySize=auto;html=1;" edge="1" parent="1" source="qQqaNePB98iEBp-6nDgx-130">
          <mxGeometry relative="1" as="geometry">
            <mxPoint x="-21" y="1710" as="targetPoint" />
          </mxGeometry>
        </mxCell>
        <mxCell id="qQqaNePB98iEBp-6nDgx-130" value="Сравнить с результатом мат. моделирования" style="rounded=1;whiteSpace=wrap;html=1;" vertex="1" parent="1">
          <mxGeometry x="-100.63" y="1650" width="160" height="30" as="geometry" />
        </mxCell>
        <mxCell id="qQqaNePB98iEBp-6nDgx-131" value="" style="edgeStyle=orthogonalEdgeStyle;rounded=0;orthogonalLoop=1;jettySize=auto;html=1;" edge="1" parent="1" source="qQqaNePB98iEBp-6nDgx-132" target="qQqaNePB98iEBp-6nDgx-133">
          <mxGeometry relative="1" as="geometry" />
        </mxCell>
        <mxCell id="qQqaNePB98iEBp-6nDgx-132" value="Визуализировать" style="rounded=1;whiteSpace=wrap;html=1;" vertex="1" parent="1">
          <mxGeometry x="-100.63" y="1780" width="160" height="30" as="geometry" />
        </mxCell>
        <mxCell id="qQqaNePB98iEBp-6nDgx-217" value="" style="edgeStyle=orthogonalEdgeStyle;rounded=0;orthogonalLoop=1;jettySize=auto;html=1;" edge="1" parent="1" source="qQqaNePB98iEBp-6nDgx-133" target="qQqaNePB98iEBp-6nDgx-215">
          <mxGeometry relative="1" as="geometry" />
        </mxCell>
        <mxCell id="qQqaNePB98iEBp-6nDgx-133" value="Экспортировать отчетности/диаграмм" style="rounded=1;whiteSpace=wrap;html=1;" vertex="1" parent="1">
          <mxGeometry x="-105.62" y="1830" width="171.25" height="30" as="geometry" />
        </mxCell>
        <mxCell id="qQqaNePB98iEBp-6nDgx-134" value="Имитационное моделирование" style="shape=umlFrame;whiteSpace=wrap;html=1;pointerEvents=0;width=190;height=20;" vertex="1" parent="1">
          <mxGeometry x="575.69" y="950" width="483" height="990" as="geometry" />
        </mxCell>
        <mxCell id="qQqaNePB98iEBp-6nDgx-173" value="" style="edgeStyle=orthogonalEdgeStyle;rounded=0;orthogonalLoop=1;jettySize=auto;html=1;" edge="1" parent="1" source="qQqaNePB98iEBp-6nDgx-139" target="qQqaNePB98iEBp-6nDgx-143">
          <mxGeometry relative="1" as="geometry" />
        </mxCell>
        <mxCell id="qQqaNePB98iEBp-6nDgx-139" value="Загрузить финансовую отчетность" style="rounded=1;whiteSpace=wrap;html=1;" vertex="1" parent="1">
          <mxGeometry x="727.6899999999999" y="1000" width="185.62" height="30" as="geometry" />
        </mxCell>
        <mxCell id="qQqaNePB98iEBp-6nDgx-175" value="" style="edgeStyle=orthogonalEdgeStyle;rounded=0;orthogonalLoop=1;jettySize=auto;html=1;" edge="1" parent="1" source="qQqaNePB98iEBp-6nDgx-143" target="qQqaNePB98iEBp-6nDgx-174">
          <mxGeometry relative="1" as="geometry" />
        </mxCell>
        <mxCell id="qQqaNePB98iEBp-6nDgx-143" value="AI - анализ" style="rounded=1;whiteSpace=wrap;html=1;" vertex="1" parent="1">
          <mxGeometry x="752.25" y="1060" width="136.5" height="30" as="geometry" />
        </mxCell>
        <mxCell id="qQqaNePB98iEBp-6nDgx-145" value="Нужны улучшения?" style="shape=hexagon;perimeter=hexagonPerimeter2;whiteSpace=wrap;html=1;fixedSize=1;" vertex="1" parent="1">
          <mxGeometry x="743.01" y="1420" width="158.75" height="40" as="geometry" />
        </mxCell>
        <mxCell id="qQqaNePB98iEBp-6nDgx-156" value="" style="endArrow=classic;html=1;rounded=0;exitX=0.5;exitY=1;exitDx=0;exitDy=0;" edge="1" parent="1" source="qQqaNePB98iEBp-6nDgx-145" target="qQqaNePB98iEBp-6nDgx-158">
          <mxGeometry width="50" height="50" relative="1" as="geometry">
            <mxPoint x="712.38" y="1610" as="sourcePoint" />
            <mxPoint x="762.38" y="1560" as="targetPoint" />
          </mxGeometry>
        </mxCell>
        <mxCell id="qQqaNePB98iEBp-6nDgx-157" value="Да" style="edgeLabel;html=1;align=center;verticalAlign=middle;resizable=0;points=[];" vertex="1" connectable="0" parent="qQqaNePB98iEBp-6nDgx-156">
          <mxGeometry x="-0.0626" y="-1" relative="1" as="geometry">
            <mxPoint as="offset" />
          </mxGeometry>
        </mxCell>
        <mxCell id="qQqaNePB98iEBp-6nDgx-193" value="" style="edgeStyle=orthogonalEdgeStyle;rounded=0;orthogonalLoop=1;jettySize=auto;html=1;" edge="1" parent="1" source="qQqaNePB98iEBp-6nDgx-158" target="qQqaNePB98iEBp-6nDgx-192">
          <mxGeometry relative="1" as="geometry" />
        </mxCell>
        <mxCell id="qQqaNePB98iEBp-6nDgx-158" value="Загрузить документацию" style="rounded=1;whiteSpace=wrap;html=1;" vertex="1" parent="1">
          <mxGeometry x="744.26" y="1500" width="157.5" height="30" as="geometry" />
        </mxCell>
        <mxCell id="qQqaNePB98iEBp-6nDgx-171" value="" style="endArrow=classic;html=1;rounded=0;exitX=1;exitY=0.5;exitDx=0;exitDy=0;" edge="1" parent="1" source="qQqaNePB98iEBp-6nDgx-60" target="qQqaNePB98iEBp-6nDgx-139">
          <mxGeometry width="50" height="50" relative="1" as="geometry">
            <mxPoint x="420" y="800" as="sourcePoint" />
            <mxPoint x="470" y="750" as="targetPoint" />
            <Array as="points">
              <mxPoint x="820" y="930" />
            </Array>
          </mxGeometry>
        </mxCell>
        <mxCell id="qQqaNePB98iEBp-6nDgx-172" value="Имитационное" style="edgeLabel;html=1;align=center;verticalAlign=bottom;resizable=0;points=[];labelPosition=center;verticalLabelPosition=top;" vertex="1" connectable="0" parent="qQqaNePB98iEBp-6nDgx-171">
          <mxGeometry x="-0.1284" y="1" relative="1" as="geometry">
            <mxPoint as="offset" />
          </mxGeometry>
        </mxCell>
        <mxCell id="qQqaNePB98iEBp-6nDgx-177" value="" style="edgeStyle=orthogonalEdgeStyle;rounded=0;orthogonalLoop=1;jettySize=auto;html=1;" edge="1" parent="1" source="qQqaNePB98iEBp-6nDgx-174" target="qQqaNePB98iEBp-6nDgx-176">
          <mxGeometry relative="1" as="geometry" />
        </mxCell>
        <mxCell id="qQqaNePB98iEBp-6nDgx-174" value="Построить модель симуляции" style="rounded=1;whiteSpace=wrap;html=1;" vertex="1" parent="1">
          <mxGeometry x="752.87" y="1119" width="136.5" height="30" as="geometry" />
        </mxCell>
        <mxCell id="qQqaNePB98iEBp-6nDgx-179" value="" style="edgeStyle=orthogonalEdgeStyle;rounded=0;orthogonalLoop=1;jettySize=auto;html=1;" edge="1" parent="1" source="qQqaNePB98iEBp-6nDgx-176" target="qQqaNePB98iEBp-6nDgx-178">
          <mxGeometry relative="1" as="geometry" />
        </mxCell>
        <mxCell id="qQqaNePB98iEBp-6nDgx-176" value="Создать агентов" style="rounded=1;whiteSpace=wrap;html=1;" vertex="1" parent="1">
          <mxGeometry x="753.5" y="1180" width="136.5" height="30" as="geometry" />
        </mxCell>
        <mxCell id="qQqaNePB98iEBp-6nDgx-182" value="" style="edgeStyle=orthogonalEdgeStyle;rounded=0;orthogonalLoop=1;jettySize=auto;html=1;" edge="1" parent="1" source="qQqaNePB98iEBp-6nDgx-178" target="qQqaNePB98iEBp-6nDgx-180">
          <mxGeometry relative="1" as="geometry" />
        </mxCell>
        <mxCell id="qQqaNePB98iEBp-6nDgx-178" value="Настроить поведение агентов" style="rounded=1;whiteSpace=wrap;html=1;" vertex="1" parent="1">
          <mxGeometry x="753.5" y="1240" width="136.5" height="30" as="geometry" />
        </mxCell>
        <mxCell id="qQqaNePB98iEBp-6nDgx-184" value="" style="edgeStyle=orthogonalEdgeStyle;rounded=0;orthogonalLoop=1;jettySize=auto;html=1;" edge="1" parent="1" source="qQqaNePB98iEBp-6nDgx-180" target="qQqaNePB98iEBp-6nDgx-183">
          <mxGeometry relative="1" as="geometry" />
        </mxCell>
        <mxCell id="qQqaNePB98iEBp-6nDgx-180" value="Запустить симуляцию" style="rounded=1;whiteSpace=wrap;html=1;" vertex="1" parent="1">
          <mxGeometry x="753.5" y="1300" width="136.5" height="30" as="geometry" />
        </mxCell>
        <mxCell id="qQqaNePB98iEBp-6nDgx-183" value="Получить результат" style="rounded=1;whiteSpace=wrap;html=1;" vertex="1" parent="1">
          <mxGeometry x="753.51" y="1360" width="136.5" height="30" as="geometry" />
        </mxCell>
        <mxCell id="qQqaNePB98iEBp-6nDgx-189" value="" style="edgeStyle=orthogonalEdgeStyle;rounded=0;orthogonalLoop=1;jettySize=auto;html=1;" edge="1" parent="1" source="qQqaNePB98iEBp-6nDgx-186">
          <mxGeometry relative="1" as="geometry">
            <mxPoint x="-21" y="1780" as="targetPoint" />
          </mxGeometry>
        </mxCell>
        <mxCell id="qQqaNePB98iEBp-6nDgx-186" value="" style="rhombus;whiteSpace=wrap;html=1;" vertex="1" parent="1">
          <mxGeometry x="-41.269999999999996" y="1710" width="40" height="40" as="geometry" />
        </mxCell>
        <mxCell id="qQqaNePB98iEBp-6nDgx-187" value="" style="endArrow=classic;html=1;rounded=0;exitX=1;exitY=0.5;exitDx=0;exitDy=0;entryX=1;entryY=0.5;entryDx=0;entryDy=0;" edge="1" parent="1" source="qQqaNePB98iEBp-6nDgx-110" target="qQqaNePB98iEBp-6nDgx-186">
          <mxGeometry width="50" height="50" relative="1" as="geometry">
            <mxPoint x="200" y="1450" as="sourcePoint" />
            <mxPoint x="250" y="1400" as="targetPoint" />
            <Array as="points">
              <mxPoint x="160" y="1410" />
              <mxPoint x="160" y="1730" />
            </Array>
          </mxGeometry>
        </mxCell>
        <mxCell id="qQqaNePB98iEBp-6nDgx-188" value="Нет" style="edgeLabel;html=1;align=center;verticalAlign=bottom;resizable=0;points=[];labelPosition=center;verticalLabelPosition=top;" vertex="1" connectable="0" parent="qQqaNePB98iEBp-6nDgx-187">
          <mxGeometry x="-0.8326" relative="1" as="geometry">
            <mxPoint as="offset" />
          </mxGeometry>
        </mxCell>
        <mxCell id="qQqaNePB98iEBp-6nDgx-195" value="" style="edgeStyle=orthogonalEdgeStyle;rounded=0;orthogonalLoop=1;jettySize=auto;html=1;" edge="1" parent="1" source="qQqaNePB98iEBp-6nDgx-192" target="qQqaNePB98iEBp-6nDgx-194">
          <mxGeometry relative="1" as="geometry" />
        </mxCell>
        <mxCell id="qQqaNePB98iEBp-6nDgx-192" value="AI - рекомендации" style="rounded=1;whiteSpace=wrap;html=1;" vertex="1" parent="1">
          <mxGeometry x="754.76" y="1560" width="136.5" height="30" as="geometry" />
        </mxCell>
        <mxCell id="qQqaNePB98iEBp-6nDgx-197" value="" style="edgeStyle=orthogonalEdgeStyle;rounded=0;orthogonalLoop=1;jettySize=auto;html=1;" edge="1" parent="1" source="qQqaNePB98iEBp-6nDgx-194">
          <mxGeometry relative="1" as="geometry">
            <mxPoint x="823" y="1690.0100000000002" as="targetPoint" />
          </mxGeometry>
        </mxCell>
        <mxCell id="qQqaNePB98iEBp-6nDgx-194" value="Изменение агентов" style="rounded=1;whiteSpace=wrap;html=1;" vertex="1" parent="1">
          <mxGeometry x="754.76" y="1620" width="136.5" height="30" as="geometry" />
        </mxCell>
        <mxCell id="qQqaNePB98iEBp-6nDgx-201" value="" style="endArrow=classic;html=1;rounded=0;exitX=0.5;exitY=1;exitDx=0;exitDy=0;entryX=0.5;entryY=0;entryDx=0;entryDy=0;" edge="1" parent="1" source="qQqaNePB98iEBp-6nDgx-183" target="qQqaNePB98iEBp-6nDgx-145">
          <mxGeometry width="50" height="50" relative="1" as="geometry">
            <mxPoint x="800" y="1480" as="sourcePoint" />
            <mxPoint x="850" y="1430" as="targetPoint" />
          </mxGeometry>
        </mxCell>
        <mxCell id="qQqaNePB98iEBp-6nDgx-214" value="" style="edgeStyle=orthogonalEdgeStyle;rounded=0;orthogonalLoop=1;jettySize=auto;html=1;" edge="1" parent="1" source="qQqaNePB98iEBp-6nDgx-210">
          <mxGeometry relative="1" as="geometry">
            <mxPoint x="823.04" y="1760" as="targetPoint" />
          </mxGeometry>
        </mxCell>
        <mxCell id="qQqaNePB98iEBp-6nDgx-210" value="" style="rhombus;whiteSpace=wrap;html=1;" vertex="1" parent="1">
          <mxGeometry x="803.01" y="1690" width="40" height="40" as="geometry" />
        </mxCell>
        <mxCell id="qQqaNePB98iEBp-6nDgx-211" value="" style="endArrow=classic;html=1;rounded=0;exitX=1;exitY=0.5;exitDx=0;exitDy=0;entryX=1;entryY=0.5;entryDx=0;entryDy=0;" edge="1" parent="1" source="qQqaNePB98iEBp-6nDgx-145" target="qQqaNePB98iEBp-6nDgx-210">
          <mxGeometry width="50" height="50" relative="1" as="geometry">
            <mxPoint x="770" y="1600" as="sourcePoint" />
            <mxPoint x="820" y="1550" as="targetPoint" />
            <Array as="points">
              <mxPoint x="960" y="1440" />
              <mxPoint x="960" y="1710" />
            </Array>
          </mxGeometry>
        </mxCell>
        <mxCell id="qQqaNePB98iEBp-6nDgx-212" value="Нет" style="edgeLabel;html=1;align=center;verticalAlign=bottom;resizable=0;points=[];labelPosition=center;verticalLabelPosition=top;" vertex="1" connectable="0" parent="qQqaNePB98iEBp-6nDgx-211">
          <mxGeometry x="-0.8318" y="-1" relative="1" as="geometry">
            <mxPoint x="-9" y="-1" as="offset" />
          </mxGeometry>
        </mxCell>
        <mxCell id="qQqaNePB98iEBp-6nDgx-215" value="Сохранить результат" style="rounded=1;whiteSpace=wrap;html=1;" vertex="1" parent="1">
          <mxGeometry x="-106.24000000000001" y="1890" width="171.25" height="30" as="geometry" />
        </mxCell>
        <mxCell id="qQqaNePB98iEBp-6nDgx-218" value="" style="edgeStyle=orthogonalEdgeStyle;rounded=0;orthogonalLoop=1;jettySize=auto;html=1;" edge="1" parent="1" source="qQqaNePB98iEBp-6nDgx-219" target="qQqaNePB98iEBp-6nDgx-221">
          <mxGeometry relative="1" as="geometry" />
        </mxCell>
        <mxCell id="qQqaNePB98iEBp-6nDgx-219" value="Визуализировать" style="rounded=1;whiteSpace=wrap;html=1;" vertex="1" parent="1">
          <mxGeometry x="749.87" y="1760" width="160" height="30" as="geometry" />
        </mxCell>
        <mxCell id="qQqaNePB98iEBp-6nDgx-220" value="" style="edgeStyle=orthogonalEdgeStyle;rounded=0;orthogonalLoop=1;jettySize=auto;html=1;" edge="1" parent="1" source="qQqaNePB98iEBp-6nDgx-221" target="qQqaNePB98iEBp-6nDgx-222">
          <mxGeometry relative="1" as="geometry" />
        </mxCell>
        <mxCell id="qQqaNePB98iEBp-6nDgx-221" value="Экспортировать отчетности/диаграмм" style="rounded=1;whiteSpace=wrap;html=1;" vertex="1" parent="1">
          <mxGeometry x="744.88" y="1810" width="171.25" height="30" as="geometry" />
        </mxCell>
        <mxCell id="qQqaNePB98iEBp-6nDgx-222" value="Сохранить результат" style="rounded=1;whiteSpace=wrap;html=1;" vertex="1" parent="1">
          <mxGeometry x="744.26" y="1870" width="171.25" height="30" as="geometry" />
        </mxCell>
        <mxCell id="qQqaNePB98iEBp-6nDgx-227" value="" style="edgeStyle=orthogonalEdgeStyle;rounded=0;orthogonalLoop=1;jettySize=auto;html=1;" edge="1" parent="1" source="qQqaNePB98iEBp-6nDgx-223" target="qQqaNePB98iEBp-6nDgx-226">
          <mxGeometry relative="1" as="geometry" />
        </mxCell>
        <mxCell id="qQqaNePB98iEBp-6nDgx-223" value="" style="rhombus;whiteSpace=wrap;html=1;" vertex="1" parent="1">
          <mxGeometry x="382.5" y="1980" width="40" height="40" as="geometry" />
        </mxCell>
        <mxCell id="qQqaNePB98iEBp-6nDgx-224" value="" style="endArrow=classic;html=1;rounded=0;exitX=0.5;exitY=1;exitDx=0;exitDy=0;entryX=0;entryY=0.5;entryDx=0;entryDy=0;" edge="1" parent="1" source="qQqaNePB98iEBp-6nDgx-215" target="qQqaNePB98iEBp-6nDgx-223">
          <mxGeometry width="50" height="50" relative="1" as="geometry">
            <mxPoint x="560" y="1770" as="sourcePoint" />
            <mxPoint x="610" y="1720" as="targetPoint" />
            <Array as="points">
              <mxPoint x="-20" y="2000" />
            </Array>
          </mxGeometry>
        </mxCell>
        <mxCell id="qQqaNePB98iEBp-6nDgx-225" value="" style="endArrow=classic;html=1;rounded=0;exitX=0.5;exitY=1;exitDx=0;exitDy=0;entryX=1;entryY=0.5;entryDx=0;entryDy=0;" edge="1" parent="1" source="qQqaNePB98iEBp-6nDgx-222" target="qQqaNePB98iEBp-6nDgx-223">
          <mxGeometry width="50" height="50" relative="1" as="geometry">
            <mxPoint x="560" y="1770" as="sourcePoint" />
            <mxPoint x="610" y="1720" as="targetPoint" />
            <Array as="points">
              <mxPoint x="830" y="2000" />
            </Array>
          </mxGeometry>
        </mxCell>
        <mxCell id="qQqaNePB98iEBp-6nDgx-226" value="" style="ellipse;html=1;shape=endState;fillColor=#000000;strokeColor=#000000;" vertex="1" parent="1">
          <mxGeometry x="387.5" y="2050" width="30" height="30" as="geometry" />
        </mxCell>
      </root>
    </mxGraphModel>
  </diagram>
</mxfile>
